<svg data-name="Layer 1" xmlns="http://www.w3.org/2000/svg" viewBox="0 0 33.81 32.62"><path d="M23.94 9.29l6.84 2.12a2.15 2.15 0 011 3.39l-4.45 5.61a2.18 2.18 0 00-.46 1.37l.1 7.16a2.15 2.15 0 01-2.9 2l-6.72-2.49a2.16 2.16 0 00-1.44 0l-6.78 2.31a2.15 2.15 0 01-2.84-2.13l.29-7.15a2.19 2.19 0 00-.42-1.38l-4.22-5.72a2.15 2.15 0 011.14-3.36l6.9-1.93a2.11 2.11 0 001.18-.83l4.13-5.85a2.15 2.15 0 013.55.05l4 6a2.24 2.24 0 001.1.83z" stroke="#b4b9bf" stroke-linecap="round" stroke-linejoin="round" fill="none" stroke-width="3"/><circle cx="16.94" cy="17.27" r="4.05" stroke="#ff8500" stroke-miterlimit="10" fill="none" stroke-width="3"/></svg>