<svg id="Layer_1" data-name="Layer 1" xmlns="http://www.w3.org/2000/svg" viewBox="0 0 44.48 33.23"><defs>
<linearGradient id="lgrad" x1="0%" y1="50%" x2="100%" y2="50%" >
<stop offset="0%" style="stop-color:rgb(255,133,0);stop-opacity:1" />
<stop offset="100%" style="stop-color:rgb(255,174,0);stop-opacity:1" />
</linearGradient>
<style>.cls-1,.cls-2,.cls-3{fill:none;}.cls-1,.cls-2,.cls-4{stroke:#ff8600;}.cls-1{stroke-linecap:round;}.cls-1,.cls-2,.cls-3,.cls-4{stroke-miterlimit:10;stroke-width:3px;}.cls-3{stroke:url(#lgrad);}.cls-4{fill:#fff;}.cls-5{fill:none;}</style></defs><title>Vector Smart Object1</title><line class="cls-1" x1="7.17" y1="7.17" x2="16.01" y2="7.17"/><line class="cls-1" x1="28.69" y1="7.17" x2="37.53" y2="7.17"/><path class="cls-2" d="M534.82,196l-4.9,8.5a5.66,5.66,0,0,0,4.9,8.5h0a5.67,5.67,0,0,0,4.91-8.5Z" transform="translate(-527.65 -181.29)"/><path class="cls-3" d="M565,196l-4.91,8.5A5.67,5.67,0,0,0,565,213h0a5.66,5.66,0,0,0,4.9-8.5Z" transform="translate(-527.65 -181.29)"/><line class="cls-1" x1="22.39" y1="14.74" x2="22.39" y2="24.57"/><circle class="cls-4" cx="22.35" cy="7.84" r="6.34"/><circle class="cls-5" cx="22.35" cy="7.84" r="2.44"/></svg>